<?xml version="1.0" encoding="UTF-8" standalone="no"?>
<svg
   xmlns:dc="http://purl.org/dc/elements/1.1/"
   xmlns:cc="http://creativecommons.org/ns#"
   xmlns:rdf="http://www.w3.org/1999/02/22-rdf-syntax-ns#"
   xmlns:svg="http://www.w3.org/2000/svg"
   xmlns="http://www.w3.org/2000/svg"
   xmlns:sodipodi="http://sodipodi.sourceforge.net/DTD/sodipodi-0.dtd"
   xmlns:inkscape="http://www.inkscape.org/namespaces/inkscape"
   viewBox="0 0 99.999998 99.999995"
   id="svg2"
   version="1.1"
   inkscape:version="0.91 r13725"
   sodipodi:docname="all.svg">
  <metadata
     id="metadata24">
    <rdf:RDF>
      <cc:Work
         rdf:about="">
        <dc:format>image/svg+xml</dc:format>
        <dc:type
           rdf:resource="http://purl.org/dc/dcmitype/StillImage" />
      </cc:Work>
    </rdf:RDF>
  </metadata>
  <defs
     id="defs22" />
  <sodipodi:namedview
     pagecolor="#ffffff"
     bordercolor="#666666"
     borderopacity="1"
     objecttolerance="10"
     gridtolerance="10"
     guidetolerance="10"
     inkscape:pageopacity="0"
     inkscape:pageshadow="2"
     inkscape:window-width="1245"
     inkscape:window-height="725"
     id="namedview20"
     showgrid="false"
     inkscape:zoom="2.3600002"
     inkscape:cx="50"
     inkscape:cy="49.999996"
     inkscape:window-x="0"
     inkscape:window-y="0"
     inkscape:window-maximized="0"
     inkscape:current-layer="svg2" />
  <g
     transform="translate(-256 -292.427)"
     stroke="#000"
     stroke-width="4"
     id="g4"
     style="stroke-width:4;stroke-miterlimit:4;stroke-dasharray:none">
    <path
       d="M284.882 294.48h46.154v64.211h-46.154z"
       fill="none"
       id="path6"
       style="stroke-width:4;stroke-miterlimit:4;stroke-dasharray:none" />
    <rect
       width="11.362"
       height="64.211"
       x="331.058"
       y="294.48"
       ry="0"
       fill="none"
       id="rect8"
       style="stroke-width:4;stroke-miterlimit:4;stroke-dasharray:none" />
    <rect
       width="11.362"
       height="64.211"
       x="273.431"
       y="294.48"
       ry="0"
       fill="none"
       id="rect10"
       style="stroke-width:4;stroke-miterlimit:4;stroke-dasharray:none" />
    <g
       transform="matrix(.44 0 0 .44 223.054 297.626)"
       fill="#fff"
       id="g12"
       style="stroke-width:9.09090909;stroke-miterlimit:4;stroke-dasharray:none">
      <path
         d="M169.5 191.291h46.429v21.429h-46.429zm14.159-90.715h17.857v95.357h-17.857zm9.106-78.573l40.931 29.738-15.634 48.117h-50.593l-15.634-48.117z"
         id="path14"
         style="stroke-width:9.09090909;stroke-miterlimit:4;stroke-dasharray:none" />
      <circle
         r="11.607"
         cy="65.755"
         cx="192.788"
         id="circle16"
         style="stroke-width:9.09090909;stroke-miterlimit:4;stroke-dasharray:none" />
    </g>
    <path
       d="M273.431 294.48h11.362v10.844h-11.362zm0 10.77h11.362v10.844h-11.362zm0 10.413h11.362v10.844h-11.362zm0 10.728h11.362v10.843h-11.362zm0 10.649h11.362v10.844h-11.362zm0 10.807h11.362v10.844h-11.362zm57.628-53.367h11.362v10.844h-11.362zm-.001 10.77h11.362v10.844h-11.362zm0 10.413h11.362v10.844h-11.362zm0 10.728h11.362v10.843h-11.362zm0 10.649h11.362v10.844h-11.362zm0 10.807h11.362v10.844h-11.362z"
       fill="none"
       id="path18"
       style="stroke-width:4;stroke-miterlimit:4;stroke-dasharray:none" />
  </g>
</svg>
