<svg xmlns="http://www.w3.org/2000/svg" viewBox="0 0 100 100"><g transform="translate(16.075 -.159)" stroke="#000" stroke-width="3.171" fill="#FFF"><path d="M1.82 73.203v-46.154h64.211v46.154z"/><rect transform="rotate(-90)" width="11.362" height="64.211" x="-27.026" y="1.82" ry="0"/><rect transform="rotate(-90)" width="11.362" height="64.211" x="-84.654" y="1.82" ry="0"/><path d="M1.82 84.654v-11.362h10.844v11.362zm10.77 0v-11.362h10.844v11.362zm10.413 0v-11.362h10.844v11.362zm10.728 0v-11.362h10.843v11.362zm10.649 0v-11.362h10.844v11.362zm10.807 0v-11.362h10.844v11.362zm-53.367-57.628v-11.362h10.844v11.362zm10.77 0v-11.362h10.844v11.362zm10.413 0v-11.362h10.844v11.362zm10.728 0v-11.362h10.843v11.362zm10.649 0v-11.362h10.844v11.362zm10.807 0v-11.362h10.844v11.362z"/></g></svg>