<svg xmlns="http://www.w3.org/2000/svg" viewBox="0 0 100 100" enable-background="new 0 0 100 100"><path d="M56.944 97.222v-25h18.055v8.333c0 1.534 1.243 2.778 2.778 2.778h11.111c1.534 0 2.778-1.243 2.778-2.778v-77.777c0-1.534-1.243-2.778-2.778-2.778h-11.111c-1.534 0-2.778 1.243-2.778 2.778v8.333h-50v-8.333c0-1.534-1.243-2.778-2.778-2.778h-11.111c-1.534 0-2.778 1.243-2.778 2.778v77.777c0 1.534 1.243 2.778 2.778 2.778h11.111c1.534 0 2.778-1.243 2.778-2.778v-8.333h18.055v25c0 1.534 1.243 2.778 2.778 2.778h8.333c1.534 0 2.778-1.243 2.778-2.778zm-8.333-2.778v-33.333h2.778v33.333h-2.778zm-34.722-16.667v-5.556h5.556v5.556h-5.556zm5.556-72.222v5.556h-5.556v-5.556h5.556zm0 11.111v5.556h-5.556v-5.556h5.556zm0 11.111v5.556h-5.556v-5.556h5.556zm0 11.111v5.556h-5.556v-5.556h5.556zm0 11.111v5.556h-5.556v-5.556h5.556zm0 11.111v5.556h-5.556v-5.556h5.556zm5.556-44.444h50v50h-18.055v-5.556h1.389c.737 0 1.443-.292 1.964-.813l8.333-8.333c.521-.521.813-1.228.813-1.964v-16.667c0-.737-.292-1.443-.813-1.964l-8.333-8.333c-.521-.521-1.228-.813-1.964-.813h-16.667c-.737 0-1.443.292-1.964.813l-8.333 8.333c-.521.521-.813 1.228-.813 1.964v16.667c0 .737.292 1.443.813 1.964l8.333 8.333c.521.521 1.228.813 1.964.813h1.389v5.556h-18.055v-50zm61.111-11.111v5.556h-5.556v-5.556h5.556zm-5.556 72.222v-5.556h5.556v5.556h-5.556zm0-11.111v-5.556h5.556v5.556h-5.556zm0-11.111v-5.556h5.556v5.556h-5.556zm0-11.111v-5.556h5.556v5.556h-5.556zm0-11.111v-5.556h5.556v5.556h-5.556zm0-11.111v-5.556h5.556v5.556h-5.556zm-37.738 33.333l-6.707-6.707v-14.364l6.707-6.707h14.364l6.707 6.707v14.365l-6.707 6.706h-14.364zM50 35c-4.136 0-7.5 3.364-7.5 7.5s3.364 7.5 7.5 7.5 7.5-3.364 7.5-7.5-3.364-7.5-7.5-7.5zm2.5 7.5c0 1.378-1.122 2.5-2.5 2.5s-2.5-1.122-2.5-2.5 1.122-2.5 2.5-2.5 2.5 1.122 2.5 2.5z"/></svg>