<svg xmlns="http://www.w3.org/2000/svg" viewBox="0 0 100 100" enable-background="new 0 0 100 100"><path fill="#fff" d="M13.889 13.89h72.222v5.556h-72.222z"/><path fill="#fff" d="M25 25.001h50v50h-50z"/><path fill="#fff" d="M13.799 80.557h72.312v5.646h-72.312z"/><path d="M80.555 43.056v-18.055h8.333c1.534 0 2.778-1.243 2.778-2.778v-11.111c0-1.534-1.243-2.778-2.778-2.778h-77.777c-1.534 0-2.778 1.243-2.778 2.778v11.111c0 1.534 1.243 2.778 2.778 2.778h8.333v50h-8.333c-1.534 0-2.778 1.243-2.778 2.778v11.111c0 1.534 1.243 2.778 2.778 2.778h77.777c1.534 0 2.778-1.243 2.778-2.778v-11.111c0-1.534-1.243-2.778-2.778-2.778h-8.333v-18.055m5.556 29.167h-5.556v-5.556h5.556zm-72.222-5.556h5.556v5.556h-5.556zm11.111 0h5.556v5.556h-5.556zm11.111 0h5.556v5.556h-5.556zm11.111 0h5.556v5.556h-5.556zm11.111 0h5.556v5.556h-5.556zm11.111 0h5.556v5.556h-5.556zm-44.444-5.556v-50h50v50zm-11.111-61.111h5.556v5.556h-5.556zm72.222 5.556h-5.556v-5.556h5.556zm-11.111 0h-5.556v-5.556h5.556zm-11.111 0h-5.556v-5.556h5.556zm-11.111 0h-5.556v-5.556h5.556zm-11.111 0h-5.556v-5.556h5.556zm-11.111 0h-5.556v-5.556h5.556z"/></svg>