<svg xmlns="http://www.w3.org/2000/svg" viewBox="0 0 100 100" enable-background="new 0 0 100 100"><ellipse cx="41.686" cy="49.886" rx="17.54" ry="17.084" fill="#fff"/><path fill="#fff" d="M61.111 48.611h33.333v2.778h-33.333z"/><path d="M94.444 51.389h-33.333v-2.778h33.333zm-22.207-8.333h-11.126v-1.389c0-.737-.292-1.443-.813-1.964l-8.333-8.333c-.521-.521-1.228-.813-1.964-.813h-16.667c-.737 0-1.443.292-1.964.813l-8.333 8.333c-.521.521-.813 1.228-.813 1.964v16.667c0 .737.292 1.443.813 1.964l8.333 8.333c.521.521 1.228.813 1.964.813h16.667c.737 0 1.443-.292 1.964-.813l8.333-8.333c.521-.521.813-1.228.813-1.964v-1.389l11.111-.011 25 .011c1.534 0 2.778-1.243 2.778-2.778v-8.333c0-1.534-1.243-2.778-2.778-2.778h-25m-16.667 14.127l-6.707 6.707h-14.364l-6.707-6.707v-14.364l6.707-6.707h14.365l6.706 6.707zm-21.312-7.183c0 4.136 3.364 7.5 7.5 7.5s7.5-3.364 7.5-7.5-3.364-7.5-7.5-7.5-7.5 3.364-7.5 7.5zm7.5-2.5c1.378 0 2.5 1.122 2.5 2.5s-1.122 2.5-2.5 2.5-2.5-1.122-2.5-2.5 1.122-2.5 2.5-2.5z"/></svg>