<svg xmlns="http://www.w3.org/2000/svg" width="256" height="256"><path d="M4 2a2 2 0 1 1 0-.002zm0 32a2 2 0 1 1 0-.002zm0 32a2 2 0 1 1 0-.002zm0 32a2 2 0 1 1 0-.002zm0 32a2 2 0 1 1 0-.002zm0 32a2 2 0 1 1 0-.002zm0 32a2 2 0 1 1 0-.002zm0 32a2 2 0 1 1 0-.002zm32-224a2 2 0 1 1 0-.002zm0 32a2 2 0 1 1 0-.002zm0 32a2 2 0 1 1 0-.002zm0 32a2 2 0 1 1 0-.002zm0 32a2 2 0 1 1 0-.002zm0 32a2 2 0 1 1 0-.002zm0 32a2 2 0 1 1 0-.002zm0 32a2 2 0 1 1 0-.002zm32-224a2 2 0 1 1 0-.002zm0 32a2 2 0 1 1 0-.002zm0 32a2 2 0 1 1 0-.002zm0 32a2 2 0 1 1 0-.002zm0 32a2 2 0 1 1 0-.002zm0 32a2 2 0 1 1 0-.002zm0 32a2 2 0 1 1 0-.002zm0 32a2 2 0 1 1 0-.002zm32-224a2 2 0 1 1 0-.002zm0 32a2 2 0 1 1 0-.002zm0 32a2 2 0 1 1 0-.002zm0 32a2 2 0 1 1 0-.002zm0 32a2 2 0 1 1 0-.002zm0 32a2 2 0 1 1 0-.002zm0 32a2 2 0 1 1 0-.002zm0 32a2 2 0 1 1 0-.002zm32-224a2 2 0 1 1 0-.002zm0 32a2 2 0 1 1 0-.002zm0 32a2 2 0 1 1 0-.002zm0 32a2 2 0 1 1 0-.002zm0 32a2 2 0 1 1 0-.002zm0 32a2 2 0 1 1 0-.002zm0 32a2 2 0 1 1 0-.002zm0 32a2 2 0 1 1 0-.002zm32-224a2 2 0 1 1 0-.002zm0 32a2 2 0 1 1 0-.002zm0 32a2 2 0 1 1 0-.002zm0 32a2 2 0 1 1 0-.002zm0 32a2 2 0 1 1 0-.002zm0 32a2 2 0 1 1 0-.002zm0 32a2 2 0 1 1 0-.002zm0 32a2 2 0 1 1 0-.002zm32-224a2 2 0 1 1 0-.002zm0 32a2 2 0 1 1 0-.002zm0 32a2 2 0 1 1 0-.002zm0 32a2 2 0 1 1 0-.002zm0 32a2 2 0 1 1 0-.002zm0 32a2 2 0 1 1 0-.002zm0 32a2 2 0 1 1 0-.002zm0 32a2 2 0 1 1 0-.002zm32-224a2 2 0 1 1 0-.002zm0 32a2 2 0 1 1 0-.002zm0 32a2 2 0 1 1 0-.002zm0 32a2 2 0 1 1 0-.002zm0 32a2 2 0 1 1 0-.002zm0 32a2 2 0 1 1 0-.002zm0 32a2 2 0 1 1 0-.002zm0 32a2 2 0 1 1 0-.002z"/></svg>