<svg xmlns="http://www.w3.org/2000/svg" viewBox="0 0 100 100" enable-background="new 0 0 100 100"><defs><marker orient="auto" overflow="visible"><path d="M9.09-3.606c-.97-1.171-2.72-1.13-4.028-.627l-8.212 3.078c-2.388-1.307-4.748-.933-4.748-1.569 0-.497.457-.388.388-1.683-.066-1.243-1.364-2.163-2.59-2.082-1.227-.007-2.499.933-2.51 2.23-.091 1.306 1.007 2.52 2.307 2.605 1.522.227 4.218-.696 5.483 1.571-.942 1.738-2.614 1.743-4.126 1.656-1.255-.072-2.762.287-3.361 1.521-.578 1.182-.011 2.865 1.317 3.226 1.34.492 3.181-.13 3.499-1.671.246-1.188-.595-1.746-.273-2.177.244-.325 1.791-.137 4.547-1.375l8.893 3.135c1.124.314 2.497.303 3.492-.802l-9.22-3.485 9.142-3.552zm-18.308-1.901c1.295.723 1.189 2.684-.156 3.063-1.217.424-2.771-.759-2.383-2.077.227-1.082 1.653-1.481 2.54-.986zm.056 8.017c1.351.499 1.121 2.784-.252 3.092-.911.316-2.214-.139-2.306-1.212-.178-1.305 1.356-2.484 2.558-1.879z" stroke="#000" fill="#FFF"/></marker><marker orient="auto" overflow="visible"><path d="M5.6-5.657l-5.657 5.657 5.657 5.657 5.657-5.657-5.657-5.657z" fill-rule="evenodd" stroke="#000" fill="#FFF" stroke-width="NaN"/></marker><marker orient="auto" overflow="visible"><path d="M.98 0c0 .552-.448 1-1 1s-1-.448-1-1 .448-1 1-1 1 .448 1 1z" fill-rule="evenodd" stroke="#000" fill="#FFF" stroke-width="NaN"/></marker><marker orient="auto" overflow="visible"><path d="M1.96 0c0 1.104-.896 2-2 2s-2-.896-2-2 .896-2 2-2 2 .896 2 2z" fill-rule="evenodd" stroke="#000" fill="#FFF" stroke-width="NaN"/></marker><marker orient="auto" overflow="visible"><path d="M3.92 0c0 2.208-1.792 4-4 4s-4-1.792-4-4 1.792-4 4-4 4 1.792 4 4z" fill-rule="evenodd" stroke="#000" fill="#FFF" stroke-width="NaN"/></marker><marker orient="auto" overflow="visible"><path d="M4.566 4.75l-5.218-4.75m2.196 4.75l-5.218-4.75m2.108 4.75l-5.218-4.75m11.35-5.013l-5.218 4.749m2.196-4.749l-5.218 4.749m2.108-4.749l-5.218 4.749" stroke="#000" fill="#FFF" fill-rule="evenodd"/></marker><marker orient="auto" overflow="visible"><path d="M1.2 0l1-1-3.5 1 3.5 1-1-1z" fill-rule="evenodd" stroke="#000" fill="#FFF" stroke-width="NaN"/></marker><marker orient="auto" overflow="visible"><path d="M1.2 0l1-1-3.5 1 3.5 1-1-1z" fill-rule="evenodd" stroke="#000" fill="#FFF" stroke-width="NaN"/></marker><marker orient="auto" overflow="visible"><path d="M1.2 0l1-1-3.5 1 3.5 1-1-1z" fill-rule="evenodd" stroke="#000" fill="#FFF" stroke-width="NaN"/></marker><marker orient="auto" overflow="visible"><path d="M4 0l2-2-7 2 7 2-2-2z" fill-rule="evenodd" stroke="#000" fill="#FFF" stroke-width="NaN"/></marker><marker orient="auto" overflow="visible"><path d="M10 0l4-4-14 4 14 4-4-4z" fill-rule="evenodd" stroke="#000" fill="#FFF" stroke-width="NaN"/></marker></defs><path d="M58.861 67.202c.663-.011 6.524-.122 8.587-.412 13.757-1.912 30.148-6.386 30.148-16.851-.004-10.306-16.416-14.791-30.174-16.737-1.977-.283-7.781-.393-8.488-.405h-53.622c-1.603 0-2.905 1.299-2.905 2.905v28.57c0 1.603 1.299 2.905 2.903 2.905l53.497.029.057-.002zm-50.646-28.598h50.663c2.337.04 6.495.173 7.719.349 15.06 2.13 25.182 6.546 25.186 10.986 0 4.546-10.103 9.007-25.142 11.098-1.295.182-5.399.312-7.862.357l-50.565-.027z" stroke="#000" stroke-width="4.794"/></svg>
