<svg xmlns="http://www.w3.org/2000/svg" viewBox="0 0 100 100"><g stroke="#000" stroke-width="7.2"><g transform="translate(-247.64 -92.228) scale(.566)" fill="none"><rect ry="14" y="167.362" x="484.5" height="148" width="85"/><rect ry="3" rx="3.701" y="176.362" x="569.5" height="22.5" width="14.521"/><rect ry="3" rx="3.701" y="206.062" x="569.5" height="22.5" width="14.521"/><rect ry="3" rx="3.701" y="235.762" x="569.5" height="22.5" width="14.521"/><rect ry="3" rx="3.701" y="265.462" x="569.5" height="22.5" width="14.521"/><rect ry="3" rx="3.701" y="176.362" x="470" height="22.5" width="14.521"/><rect ry="3" rx="3.701" y="206.062" x="470" height="22.5" width="14.521"/><rect ry="3" rx="3.701" y="235.762" x="470" height="22.5" width="14.521"/><rect ry="3" rx="3.701" y="265.462" x="470" height="22.5" width="14.521"/></g><g transform="translate(-322.91 -78.93) scale(.566)" fill="#fff"><g transform="translate(133.5 -21.5)"><circle cx="526.5" cy="209.362" r="25"/><circle cx="534" cy="199.362" r="5.5"/></g><rect ry="0" rx="0" y="212.862" x="654.19" height="100.5" width="11.81"/></g></g></svg>
